<svg id="Capa_1" data-name="Capa 1" xmlns="http://www.w3.org/2000/svg" viewBox="0 0 508.22 512"><defs><style>.cls-1{fill:#b59deb;}</style></defs><title>artist-lilas</title><path class="cls-1" d="M212.7,137.23a40.41,40.41,0,1,0-40.4-40.4,40.45,40.45,0,0,0,40.4,40.4Zm0-65.81a25.41,25.41,0,1,1-25.4,25.41,25.44,25.44,0,0,1,25.4-25.41Z" transform="translate(-1.89 0)"/><path class="cls-1" d="M197.84,437a46.24,46.24,0,1,0-46.24-46.24A46.29,46.29,0,0,0,197.84,437Zm0-77.48a31.24,31.24,0,1,1-31.24,31.24A31.28,31.28,0,0,1,197.84,359.52Z" transform="translate(-1.89 0)"/><path class="cls-1" d="M131.62,131.63a49,49,0,1,0,49,49A49.08,49.08,0,0,0,131.62,131.63Zm0,83.05a34,34,0,1,1,34-34A34.07,34.07,0,0,1,131.62,214.68Z" transform="translate(-1.89 0)"/><path class="cls-1" d="M117.58,348.72a49,49,0,1,0-49-49A49.08,49.08,0,0,0,117.58,348.72Zm0-83a34,34,0,1,1-34,34A34.06,34.06,0,0,1,117.58,265.68Z" transform="translate(-1.89 0)"/><path class="cls-1" d="M166.44,490.45a7.5,7.5,0,0,0,2.69-14.76,132.33,132.33,0,0,1-74.36-41.24C36.79,371.15,11,302.88,18,231.53,34,70.51,203.79-9.64,360.39,21.68c21.15,4.24,29.39,21.48,30,35,.62,13.31-5.9,31-26.3,37.1-26.35,7.87-47.19,19.36-61.93,34.15-33.79,33.9-36.72,91.09-4.45,129.61a132,132,0,0,1,29.54,66.83c-17,38.6-34.35,82.32-47.79,122.78a135.8,135.8,0,0,1-77.18,30.5,7.5,7.5,0,0,0,.48,15,4,4,0,0,0,.49,0A151.42,151.42,0,0,0,272,470.83a32.32,32.32,0,0,0,59.23,24.76C345.63,470,361.27,439,376.44,405.9a7.5,7.5,0,0,0-13.64-6.25c-15,32.75-30.44,63.37-44.67,88.56a17.39,17.39,0,0,1-22.6,7.1,17.2,17.2,0,0,1-9.09-20.6C305.8,410.84,338.09,333.1,367.66,273L408,290.25c-9.4,25.61-20.11,52.28-31,77.57a7.5,7.5,0,0,0,13.77,5.94c20.58-47.76,43.54-107.4,56.95-157.58a17,17,0,0,0,10-9.42l6.49-15.17a17.11,17.11,0,0,0,1.09-9.93c12.48-8,30-22.18,39-43.33,11.19-26.13,3.76-70.4-1.67-94.46a14.78,14.78,0,0,0-22-9.43c-21.15,12.69-58.31,37.87-69.5,64-9.05,21.15-7.28,43.6-4.43,58.13a17.08,17.08,0,0,0-6.43,7.66l-6.49,15.16a17,17,0,0,0,.11,13.76c-20.13,33-40.11,73-56.22,108.13a146.44,146.44,0,0,0-28.41-53.39,79.48,79.48,0,0,1-19-52.34c0-42.52,26.29-71.94,78.14-87.43,23.61-7,38.13-27.53,37-52.16-.95-20.38-14.32-43.42-42.06-49C198.25-26,20,59.75,3.11,230.06c-7.5,75.77,19.61,148,80.59,214.52a147.28,147.28,0,0,0,82.74,45.87ZM405.36,203.09l27.16,11.63c-4.9,18-11.54,39-19.45,61.39l-38.69-16.56c10.74-21.19,21.32-40.47,31-56.46Zm45-17.4-6.49,15.16A2.23,2.23,0,0,1,441,202l-32.27-13.81a2.22,2.22,0,0,1-1.17-2.92L414,170.12A2.23,2.23,0,0,1,417,169l32.27,13.81a2.26,2.26,0,0,1,1.17,2.93Zm-25.51-81.35c3.28-7.68,16-28.56,63.16-56.88,12.06,53.67,5.74,77.29,2.45,85-7.74,18.09-23.32,30.38-34.14,37.14-.4-.21-.81-.41-1.23-.58l-32.27-13.82h0c-.42-.18-.85-.34-1.28-.48-2.57-12.5-4.43-32.25,3.31-50.34Z" transform="translate(-1.89 0)"/></svg>