<svg id="Capa_1" data-name="Capa 1" xmlns="http://www.w3.org/2000/svg" viewBox="0 0 512 436.35"><defs><style>.cls-1{fill:#b59deb;}</style></defs><title>graduation-hat-lilas</title><path class="cls-1" d="M511,349.75a45,45,0,0,0-29.92-42.31V152.63L512,140.28,255.67,37.83,0,140.28l121,48.5V260c0,21.95,15.39,41.73,43.33,55.7C189,328,221.43,334.79,255.68,334.79S322.36,328,347,315.68c27.94-14,43.32-33.75,43.32-55.7V188.91l60.85-24.32V307.44a44.88,44.88,0,0,0-4.34,82.83L422,464.71l28.39,9.47L466.14,427l15.73,47.19,28.39-9.47-24.81-74.44A45,45,0,0,0,511,349.75ZM360.41,260c0,21.18-44.79,44.88-104.73,44.88S150.94,281.16,150.94,260V200.77l104.73,42,104.74-41.87V260ZM255.68,210.5,80.44,140.28,255.68,70.06l175.7,70.22ZM466.14,364.71a15,15,0,1,1,15-15A15,15,0,0,1,466.14,364.71Z" transform="translate(0 -37.83)"/></svg>