<svg id="Capa_1" data-name="Capa 1" xmlns="http://www.w3.org/2000/svg" viewBox="0 0 612 612"><defs><style>.cls-1{fill:#b59deb;}</style></defs><title>image-lilas</title><g id="_6" data-name="6"><path class="cls-1" d="M153,76.5A76.5,76.5,0,1,0,229.5,153,76.5,76.5,0,0,0,153,76.5Zm0,114.75A38.25,38.25,0,1,1,191.25,153,38.24,38.24,0,0,1,153,191.25ZM535.5,0H76.5A76.5,76.5,0,0,0,0,76.5v459A76.5,76.5,0,0,0,76.5,612h459A76.5,76.5,0,0,0,612,535.5V76.5A76.5,76.5,0,0,0,535.5,0ZM76.5,573.75A38.26,38.26,0,0,1,38.25,535.5v-18l152-136.07,192.32,192.3ZM573.75,535.5a38.26,38.26,0,0,1-38.25,38.25H436.66L295.75,431,459,267.73,573.75,382.48Zm0-207.93L459,210.38,268.86,403.75l-77.61-78.62-153,140.3V76.5A38.26,38.26,0,0,1,76.5,38.25h459A38.26,38.26,0,0,1,573.75,76.5Z"/></g></svg>