<svg height="512" viewBox="0 0 47 56" width="512" xmlns="http://www.w3.org/2000/svg"><g id="Page-1" fill="none" fill-rule="evenodd"><g id="044---Ninja-Costume" fill="rgb(0,0,0)" fill-rule="nonzero"><circle id="Oval" cx="34" cy="20" r="1"/><circle id="Oval" cx="22" cy="20" r="1"/><path id="Shape" d="m27.909 32h-1.36c.3591973.6968086.8522685 1.315951 1.451 1.822.6008025-.504799 1.0950787-1.124174 1.454-1.822z"/><path id="Shape" d="m21.15 25c2.435 0 3.152-.51 3.846-1 .846357-.6848064 1.9120306-1.0400309 3-1 1.0879694-.0400309 2.153643.3151936 3 1 .694.494 1.411 1 3.846 1 2.758 0 4.158-2.019 4.158-6 .0073722-1.1651919-.1225227-2.3271969-.387-3.462-3.4349268-1.0669163-7.0165109-1.5859473-10.613-1.538-3.5964836-.047864-7.1780547.4711652-10.613 1.538-.2644773 1.1348031-.3943722 2.2968081-.387 3.462 0 3.981 1.4 6 4.15 6zm12.85-8c1.6568542 0 3 1.3431458 3 3s-1.3431458 3-3 3-3-1.3431458-3-3 1.3431458-3 3-3zm-12 0c1.6568542 0 3 1.3431458 3 3s-1.3431458 3-3 3-3-1.3431458-3-3 1.3431458-3 3-3z"/><path id="Shape" d="m42.985 17.515c-.6963603-.4359127-1.42517-.817702-2.18-1.142.765 5.3-.599 10.627-5.955 10.627-5.2 0-4.411-2-6.85-2s-1.67 2-6.85 2c-5.356 0-6.72-5.326-5.955-10.627-.7550107.3239183-1.483849.7057226-2.18 1.142.185 10.067 5.412 12.485 15.069 12.485 9.538-.014 14.716-2.439 14.901-12.485z"/><path id="Shape" d="m11 12.429c-1.29912989.3808092-2.64620914.5731048-4 .571-1.947 0-7 1.258-7 7v3.132l1.445-.964c.33603687-.2241995.77396313-.2241995 1.11 0l1.445.964v-2.132c0-4.052 2.522-4.121 4.364-4.172l.236-.008c.6885764-.5288547 1.5317745-.8169474 2.4-.82z"/><path id="Shape" d="m42.967 9.183c-.295-3.763-2.827-9.183-14.967-9.183s-14.672 5.42-14.967 9.183c2.342-1.251 7.212-3.183 14.967-3.183s12.625 1.932 14.967 3.183z"/><path id="Shape" d="m43 15.2v-3.675c-1.3-.843-6.142-3.525-15-3.525s-13.693 2.679-15 3.525v3.675c2.328-1.25 7.2-3.2 15-3.2s12.672 1.951 15 3.2z"/><path id="Shape" d="m43.687 40.9-3.475 1.984c.2701395.5322996.7591715.9201651 1.339 1.062.5911809.1390058 1.2134668-.0002625 1.689-.378.7486231-.6313251.9566924-1.6987206.5-2.565z"/><path id="Shape" d="m33.646 55.98c1.3913848.1744996 2.7138991-.6525941 3.166-1.98h-5.6c.3802126 1.0611265 1.3176955 1.8237461 2.434 1.98z"/><path id="Shape" d="m35.071 44h-14.142c-.0512714.3194262-.142312.6311814-.271.928-.9797056 2.2348343-1.5312536 4.6336951-1.626 7.072h6.007c.0653606-1.7701349.5672444-3.4966699 1.461-5.026.2875982-.5660903.854126-.9369224 1.488-.974h.012c.6196725.0263101 1.1798751.3764842 1.475.922.9139198 1.5407805 1.4236979 3.2875099 1.482 5.078h6.013c-.0959414-2.4391094-.6484931-4.8385882-1.629-7.074-.1289683-.2959448-.2196991-.6071176-.27-.926z"/><path id="Shape" d="m11 18c-1.1045695 0-2 .8954305-2 2s.8954305 2 2 2h.492c-.277176-1.3162316-.4321679-2.6552541-.463-4z"/><path id="Shape" d="m21.363 55.935c1.4742941.3281827 2.9593989-.5054923 3.447-1.935h-5.61c.333125.9787951 1.1532922 1.7125091 2.163 1.935z"/><path id="Shape" d="m45 18h-.029c-.0308815 1.3447963-.1862112 2.6838449-.464 4h.493c1.1045695 0 2-.8954305 2-2s-.8954305-2-2-2z"/><path id="Shape" d="m41.446 36.421c-1.3467577-2.7170789-4.1214833-4.4317926-7.154-4.421h-2.613c-.4888359 1.163608-1.2055734 2.2176337-2.108 3.1 1.8976541 1.8347534 3.0931282 4.2759405 3.379 6.9h2.05v-4c-.0000971-.4468521.2962789-.8395346.7260342-.9619568s.8885718.0551325 1.1239658.4349568l2.306 3.714 3.636-2.076z"/><path id="Shape" d="m20.274 37.038c.4297572.1224392.7261208.5151414.726.962v4h9.934c-.3758295-2.4253476-1.6304534-4.627791-3.525-6.188-1.3972974-.9223834-2.4757426-2.2536765-3.088-3.812h-2.613c-3.0326066-.0101293-5.8071585 1.7048649-7.154 4.422l-1.345 2.69 3.638 2.078 2.3-3.716c.2368132-.3799003.6961686-.5576101 1.127-.436z"/><path id="Shape" d="m12.262 41c-.45699.8668886-.2489428 1.9350028.5 2.567.4723646.3727535 1.0874522.5130224 1.6747208.3819148.5872685-.1311075 1.0842978-.519656 1.3532792-1.0579148v-.006l-3.477-1.985z"/></g></g></svg>