<svg id="Camada_1" data-name="Camada 1" xmlns="http://www.w3.org/2000/svg" viewBox="0 0 464 464"><defs><style>.cls-1{fill:#b59deb;}.cls-2{fill:#9985c9;}.cls-3{fill:#8257e5;}.cls-4{fill:#6642b8;}.cls-5{fill:#d0d8da;}.cls-6{fill:#93999a;}.cls-7{fill:#fefefe;}</style></defs><title>pen-tablet-lilas</title><g id="Flat"><g id="Colors_copy" data-name="Colors copy"><path class="cls-1" d="M24,168H488V488H24Z" transform="translate(-24 -24)"/><path class="cls-2" d="M96,240V168H24V488H488V432H288C182,432,96,346,96,240Z" transform="translate(-24 -24)"/><circle class="cls-3" cx="64" cy="304" r="32"/><path class="cls-3" d="M88,360a31.9,31.9,0,0,0,31.58-27.78,191.68,191.68,0,0,1-13.39-30.51A32,32,0,1,0,88,360Z" transform="translate(-24 -24)"/><path class="cls-3" d="M56,200h64v32H56Z" transform="translate(-24 -24)"/><path class="cls-3" d="M56,232h64v32H56Z" transform="translate(-24 -24)"/><path class="cls-3" d="M56,392h64v32H56Z" transform="translate(-24 -24)"/><path class="cls-3" d="M56,424h64v32H56Z" transform="translate(-24 -24)"/><path class="cls-3" d="M152,200H456V456H152Z" transform="translate(-24 -24)"/><path class="cls-4" d="M72,392H56v32h64V408H88A16,16,0,0,1,72,392Z" transform="translate(-24 -24)"/><path class="cls-4" d="M72,424H56v32h64V440H88A16,16,0,0,1,72,424Z" transform="translate(-24 -24)"/><path class="cls-4" d="M88,304a23.87,23.87,0,0,0-20.43,11.57A23.66,23.66,0,0,1,80,312a24,24,0,0,1,24,24,23.66,23.66,0,0,1-3.57,12.43A23.93,23.93,0,0,0,88,304Z" transform="translate(-24 -24)"/><path class="cls-4" d="M288,432a191.39,191.39,0,0,1-136-56.48V456H456V432Z" transform="translate(-24 -24)"/><path class="cls-3" d="M56,200H96v32H56Z" transform="translate(-24 -24)"/><path class="cls-3" d="M96,232H56v32H97.54A196.54,196.54,0,0,1,96,240Z" transform="translate(-24 -24)"/><path class="cls-4" d="M72,200H56v32h64V216H88A16,16,0,0,1,72,200Z" transform="translate(-24 -24)"/><path class="cls-4" d="M72,232H56v32h64V248H88A16,16,0,0,1,72,232Z" transform="translate(-24 -24)"/><path class="cls-4" d="M96,232V216H88a16,16,0,0,1-16-16H56v32Z" transform="translate(-24 -24)"/><path class="cls-4" d="M72,232H56v32H97.54c-.65-5.26-1-10.62-1.28-16H88A16,16,0,0,1,72,232Z" transform="translate(-24 -24)"/><circle class="cls-4" cx="64" cy="304" r="8"/><path class="cls-5" d="M424,256a8,8,0,0,1-8-8v-8h-8a8,8,0,0,1,0-16h16a8,8,0,0,1,8,8v16A8,8,0,0,1,424,256Z" transform="translate(-24 -24)"/><path class="cls-5" d="M184,256a8,8,0,0,1-8-8V232a8,8,0,0,1,8-8h16a8,8,0,0,1,0,16h-8v8A8,8,0,0,1,184,256Z" transform="translate(-24 -24)"/><path class="cls-5" d="M424,432H408a8,8,0,0,1,0-16h8v-8a8,8,0,0,1,16,0v16A8,8,0,0,1,424,432Z" transform="translate(-24 -24)"/><path class="cls-6" d="M200,432H184a8,8,0,0,1-8-8V408a8,8,0,0,1,16,0v8h8a8,8,0,0,1,0,16Z" transform="translate(-24 -24)"/><path class="cls-7" d="M284,329.91a8,8,0,0,1-6.92-12l12-20.8A8,8,0,0,1,303,305a.41.41,0,0,0-.05.09l-12,20.8a8,8,0,0,1-6.94,4Z" transform="translate(-24 -24)"/><path class="cls-3" d="M339.71,291.56l-55.42-32L426.14,45.86l27.72,16Z" transform="translate(-24 -24)"/><path class="cls-3" d="M456,26.14A16,16,0,0,1,461.85,48l-8,13.86h0l-27.71-16h0l8-13.86A16,16,0,0,1,456,26.14Z" transform="translate(-24 -24)"/><path class="cls-3" d="M294.93,321.13l-13.86-8,3.22-53.57,55.42,32Z" transform="translate(-24 -24)"/><path class="cls-4" d="M348.47,241.83A139.86,139.86,0,0,1,320.2,280.3l19.51,11.26L453.86,61.86l-12.4-7.16Z" transform="translate(-24 -24)"/><path class="cls-4" d="M456.87,26.78l-11,19.08-4.4,8.84,12.4,7.16,8-13.86A16,16,0,0,0,456.87,26.78Z" transform="translate(-24 -24)"/><path class="cls-4" d="M300.28,296.31a25.86,25.86,0,0,1-18.4,3.89l-.8,12.93,13.86,8,44.8-29.6-19.52-11.27A138.62,138.62,0,0,1,300.28,296.31Z" transform="translate(-24 -24)"/><path class="cls-7" d="M328,255.85a8,8,0,0,1-6.92-12l16-27.71a8,8,0,0,1,13.86,8l-16,27.71a8,8,0,0,1-6.94,4Z" transform="translate(-24 -24)"/></g></g></svg>