<svg id="Capa_1" data-name="Capa 1" xmlns="http://www.w3.org/2000/svg" viewBox="0 0 312 512"><defs><style>.cls-1{fill:#b59deb;}</style></defs><title>question-lilas</title><path class="cls-1" d="M256,392a60,60,0,1,0,60,60A60.07,60.07,0,0,0,256,392Zm0,90a30,30,0,1,1,30-30A30,30,0,0,1,256,482Z" transform="translate(-100)"/><path class="cls-1" d="M256,0C170,0,100,70,100,156v15H220V156a36,36,0,1,1,59.26,27.47L196,254.26V362H316V309.74l41-34.84A155.81,155.81,0,0,0,412,156C412,70,342,0,256,0Zm81.55,252.05L286,295.87V332H226V268.13l72.69-61.8a66,66,0,1,0-107-65.33H130.89C138.33,78.57,191.6,30,256,30a126,126,0,0,1,81.55,222.05Z" transform="translate(-100)"/></svg>