<svg id="Capa_1" data-name="Capa 1" xmlns="http://www.w3.org/2000/svg" viewBox="0 0 512 504.71"><defs><style>.cls-1{fill:#b59deb;}</style></defs><title>3d-lilas</title><path class="cls-1" d="M82.69,326.69a7.54,7.54,0,0,0,7.54-7.53V267.25a7.54,7.54,0,0,0-15.07,0v51.91A7.53,7.53,0,0,0,82.69,326.69Z" transform="translate(0 -3.64)"/><path class="cls-1" d="M82.69,222.88a7.54,7.54,0,0,0,7.54-7.53V194.49l17.85-10.77a7.53,7.53,0,0,0-7.79-12.9l-21.49,13a7.54,7.54,0,0,0-3.64,6.45v25.11a7.53,7.53,0,0,0,7.53,7.53Z" transform="translate(0 -3.64)"/><path class="cls-1" d="M147.66,158.56a7.55,7.55,0,0,0,3.89-1.08L195,131.24a7.53,7.53,0,0,0-7.79-12.9l-43.47,26.24a7.53,7.53,0,0,0,3.9,14Z" transform="translate(0 -3.64)"/><path class="cls-1" d="M316.73,131.28l43.1,26.22a7.53,7.53,0,1,0,7.83-12.87l-43.11-26.22a7.53,7.53,0,1,0-7.82,12.87Z" transform="translate(0 -3.64)"/><path class="cls-1" d="M402.94,183.73l17.83,10.84v20.87a7.53,7.53,0,1,0,15.06,0v-25.1a7.54,7.54,0,0,0-3.62-6.44l-21.44-13a7.53,7.53,0,0,0-7.83,12.87Z" transform="translate(0 -3.64)"/><path class="cls-1" d="M428.3,259.75a7.53,7.53,0,0,0-7.53,7.53v51.84a7.53,7.53,0,1,0,15.06,0V267.28A7.53,7.53,0,0,0,428.3,259.75Z" transform="translate(0 -3.64)"/><path class="cls-1" d="M359.83,428.9l-43.1,26.22a7.53,7.53,0,0,0,3.92,14,7.42,7.42,0,0,0,3.9-1.1l43.11-26.22a7.53,7.53,0,0,0-7.83-12.87Z" transform="translate(0 -3.64)"/><path class="cls-1" d="M273.62,481.34,256.07,492,238.48,481.4a7.53,7.53,0,1,0-7.78,12.9l21.49,13a7.51,7.51,0,0,0,7.81,0l21.44-13.05a7.53,7.53,0,0,0-7.82-12.87Z" transform="translate(0 -3.64)"/><path class="cls-1" d="M195,455.17l-43.47-26.24a7.53,7.53,0,0,0-7.79,12.89l43.47,26.24A7.53,7.53,0,1,0,195,455.17Z" transform="translate(0 -3.64)"/><path class="cls-1" d="M256,201.55a7.53,7.53,0,0,0,7.53-7.53v-5.79a7.53,7.53,0,1,0-15.06,0V194A7.53,7.53,0,0,0,256,201.55Z" transform="translate(0 -3.64)"/><path class="cls-1" d="M256,244.74a7.53,7.53,0,0,0,7.53-7.53v-5.79a7.53,7.53,0,1,0-15.06,0v5.79A7.53,7.53,0,0,0,256,244.74Z" transform="translate(0 -3.64)"/><path class="cls-1" d="M480.48,398.33a31.41,31.41,0,0,0-21,8l-23.68-13.53V371a7.53,7.53,0,0,0-15.06,0v13.25l-27.13-15.5c0-.17,0-.34,0-.52v-150a15,15,0,0,0-7.18-12.76L263.75,130.79l-.22-.12V98.93l10.09,6.13a7.42,7.42,0,0,0,3.9,1.1,7.53,7.53,0,0,0,3.93-14l-17.92-10.9V65.76a31.52,31.52,0,1,0-15.06,0V81.38L230.7,92.11A7.53,7.53,0,1,0,238.48,105l10-6v31.68l-.2.12L124.55,205.44a15,15,0,0,0-7.21,12.79v46.36a7.53,7.53,0,1,0,15.06,0v-37.2l116.07,70.06V438.17L133.89,369c-.06-.13-.12-.26-.19-.39a7.35,7.35,0,0,0-1.3-1.66V296.68a7.53,7.53,0,1,0-15.06,0v71.5c0,.36,0,.73,0,1.09L90.23,384.79V371.06a7.54,7.54,0,0,0-15.07,0v22.33l-22.67,13A31.37,31.37,0,1,0,61,418.81L84,405.72l16.34,9.86a7.53,7.53,0,1,0,7.79-12.89l-9.16-5.53,27-15.4,122.39,73.88a14.69,14.69,0,0,0,2.36,1.15,7.52,7.52,0,0,0,10.75,0,14.69,14.69,0,0,0,2.36-1.15l48.48-29.49a7.53,7.53,0,0,0-7.82-12.87l-40.87,24.86V297.44l115.06-70V368.12L332.11,396.4a7.53,7.53,0,0,0,7.83,12.87l45.68-27.79,26.9,15.37-9.58,5.83a7.53,7.53,0,1,0,7.83,12.87l16.7-10.16L451,418.81a31.52,31.52,0,1,0,29.52-20.48Zm-449,48A16.46,16.46,0,1,1,48,429.85,16.48,16.48,0,0,1,31.52,446.31Zm208-411.15A16.45,16.45,0,1,1,256,51.61,16.47,16.47,0,0,1,239.55,35.16Zm8.92,113.08v7.92a7.53,7.53,0,1,0,15.06,0v-7.87l108.1,65.76-108.1,65.76V271a7.53,7.53,0,1,0-15.06,0v8.87l-109-65.81Zm232,298.07a16.46,16.46,0,1,1,16.46-16.46A16.48,16.48,0,0,1,480.48,446.31Z" transform="translate(0 -3.64)"/></svg>