<svg id="Capa_1" data-name="Capa 1" xmlns="http://www.w3.org/2000/svg" viewBox="0 0 510.99 512"><defs><style>.cls-1{fill:#b59deb;}.cls-2{fill:#f9f0f1;}.cls-3{fill:#e1def1;}.cls-4{fill:#8257e5;}.cls-5{fill:#bebbda;}</style></defs><title>cenario-lilas</title><path class="cls-1" d="M360.31,361.41l68.26,7.33,68.27-7.33V331.29l-72.88-6-72.89,6-3.91,14.76Z" transform="translate(-0.3)"/><path class="cls-1" d="M15.06,331.29v30.12l68.27,7.33,68.26-7.33L169,346.05l-8.23-14.76-72.89-6Z" transform="translate(-0.3)"/><path class="cls-1" d="M47.28,120.47l104.41,13.05L256.1,120.47l15.06-60.23L256,0C167.45,0,89.45,47.69,47.28,120.47Z" transform="translate(-0.3)"/><path class="cls-1" d="M256,0V120.47l104.41,11,104.41-11C423.05,48.49,345.55,0,256,0Z" transform="translate(-0.3)"/><path class="cls-1" d="M455.08,206.11l-33.43,4.71-5.52,15.06,5.52,15.06,37.64,5.82,37.65-5.82A234.74,234.74,0,0,0,495,210.82Z" transform="translate(-0.3)"/><path class="cls-1" d="M391.53,150.59l-7,15.06,7,15.06L434.4,189c3.21-.5-15.36,2.31,54.91-8.33a229.28,229.28,0,0,0-9.94-30.12l-44-5.82Z" transform="translate(-0.3)"/><path class="cls-1" d="M120.47,240.94,130,225.88l-9.54-15.06L77.6,203s-44,7.83-60.63,7.83a246.48,246.48,0,0,0-1.91,30.12c18.67,0,60.23,5.82,60.23,5.82Z" transform="translate(-0.3)"/><path class="cls-1" d="M436.71,421.65,466.82,429l30.12-7.33V391.53l-30.12-8.33-30.11,8.33L427,406.59Z" transform="translate(-0.3)"/><path class="cls-1" d="M80.82,441.42,15.06,451.76V512H150.59L169,481.88l-18.77-30.12Z" transform="translate(-0.3)"/><path class="cls-1" d="M496.94,451.76l-72.88-10.34-62.65,10.34-14.05,30.12L361.41,512H496.94Z" transform="translate(-0.3)"/><path class="cls-1" d="M361.41,421.65c7.93,1.6,14.66,3,22.59,4.72,7.93-1.61,14.66-3,22.59-4.72l10-15.06-10-15.06c-7.93-1.61-14.66-3-22.59-4.72-7.93,1.61-14.66,3-22.59,4.72-2.81,5.22-5.22,9.84-8,15.06C356.19,411.81,358.6,416.43,361.41,421.65Z" transform="translate(-0.3)"/><path class="cls-1" d="M150.59,391.53,128,384.8l-22.59,6.73-7.53,15.06,7.53,15.06L128,429l22.59-7.33,13.75-15.06Z" transform="translate(-0.3)"/><path class="cls-1" d="M75.29,391.53,45.18,384.8l-30.12,6.73v30.12L45.18,429l30.11-7.33,7-15.06Z" transform="translate(-0.3)"/><path class="cls-1" d="M90.35,271.06,51,263.83l-35.94,7.23v30.12L52.71,306l37.64-4.82,5.52-15.06Z" transform="translate(-0.3)"/><path class="cls-1" d="M90.35,180.71l7.53-15.06-7.53-15.06-28.91-5.82-28.91,5.82a263.37,263.37,0,0,0-9.94,30.12c54.61,8.23,39.85,6,39.85,6Z" transform="translate(-0.3)"/><path class="cls-1" d="M120.47,271.06c-2.41,5.22-4.62,9.84-7,15.06,2.41,5.22,4.62,9.84,7,15.06l30.92,6.52,30.92-6.52,73.79-30.12c-10.34-.9-75.39-6.43-85.83-7.33C154.4,266.14,136.23,268.75,120.47,271.06Z" transform="translate(-0.3)"/><path class="cls-1" d="M391.53,271.06c-18.47-2-57-6.13-67.77-7.33-18.47,2-57,6.12-67.76,7.33l37.65,15.06,36.14,15.06,31.62,6.52,30.12-6.52c2.71-5.12,5.32-9.94,8-15.06Z" transform="translate(-0.3)"/><path class="cls-1" d="M301.18,180.71,331.29,189l30.12-8.33,6.53-15.06-6.53-15.06-30.12-5.72-30.11,5.72-8.54,15.06Z" transform="translate(-0.3)"/><path class="cls-1" d="M331.29,240.94l30.12,5.82,30.12-5.82,5.52-15.06-5.52-15.06-30.12-6-30.12,6-4.21,15.06Z" transform="translate(-0.3)"/><path class="cls-1" d="M421.65,271.06l-4.32,10.84,4.32,19.28,37.64,6.52,37.65-6.52V271.06l-35.14-7.33Z" transform="translate(-0.3)"/><path class="cls-1" d="M150.59,240.94l30.12,7.53,30.11-7.53,9.54-15.06-9.54-15.06-30.11-6-30.12,6-7.53,15.06Z" transform="translate(-0.3)"/><path class="cls-1" d="M240.94,210.82v30.12H256l6.53-15.06L256,210.82H240.94Z" transform="translate(-0.3)"/><path class="cls-1" d="M301.18,210.82,278.59,206,256,210.82v30.12l22.59,3.82,22.59-3.82,6-15.06Z" transform="translate(-0.3)"/><path class="cls-1" d="M180.71,150.59l-30.12-5.72-30.12,5.72-7,15.06,7,15.06L150.59,187l30.12-6.32,5.52-15.06Z" transform="translate(-0.3)"/><path class="cls-1" d="M210.82,150.59l-7.53,15.06,7.53,15.06L233.41,187,256,180.71l4.52-15.06L256,150.59l-22.59-5.72Z" transform="translate(-0.3)"/><path class="cls-1" d="M271.06,150.59l-7.53-5.82L256,150.59v30.12l7.53,5.32,7.53-5.32,6-15.06Z" transform="translate(-0.3)"/><path class="cls-2" d="M120.47,301.18V271.06H256L271.06,256,256,240.94H240.94V210.82H256l15.06-15.06-15.06-15H210.82V150.59H256l15.06-15.06L256,120.47H47.28a232,232,0,0,0-14.75,30.12H90.35v30.12H22.59a247.7,247.7,0,0,0-5.72,30.11h103.5v30.12H15v30.12H90.25v30.12H15v30.11H160.63l25.3-15.05-3.82-15.06Zm90.35-60.24H150.59V210.82h60.23Zm-90.35-90.35h60.24v30.12H120.47Z" transform="translate(-0.3)"/><path class="cls-3" d="M496.94,301.18H421.65V271.06h75.29V240.94H421.65V210.82H495a251.4,251.4,0,0,0-5.72-30.11H391.43V150.59h87.94a237.18,237.18,0,0,0-14.76-30.12H255.9v30.12H271v30.12H255.9v30.11h45.18v30.12H255.9v30.12H391.43v30.12H329.69l1.5,15.06,20,15.05H496.94ZM301.18,150.59h60.23v30.12H301.18Zm90.35,90.35H331.29V210.82h60.24Z" transform="translate(-0.3)"/><path class="cls-2" d="M105.41,421.65V391.53h45.18l13.75-15.06-12.65-15.06H15.06v30.12H75.29v30.12H15.06v30.11H150.29l9-15.05-8.73-15.06Z" transform="translate(-0.3)"/><path class="cls-3" d="M496.94,421.65H436.71V391.53h60.23V361.41H360.31l-9,15.06,10.14,15.06h45.18v30.12H361.41l-10.14,15.06,10.14,15.05H496.94Z" transform="translate(-0.3)"/><path class="cls-4" d="M256,271.06A105.39,105.39,0,0,0,150.59,376.47V512h45.17L256,316.24l13.45-23.09Z" transform="translate(-0.3)"/><path class="cls-4" d="M361.41,376.47A105.39,105.39,0,0,0,256,271.06v45.18L316.24,512h45.17Z" transform="translate(-0.3)"/><path class="cls-2" d="M195.76,376.47V512H256l10.54-97.88L256,316.24A60.28,60.28,0,0,0,195.76,376.47Z" transform="translate(-0.3)"/><path class="cls-3" d="M316.24,376.47A60.28,60.28,0,0,0,256,316.24V512h60.24Z" transform="translate(-0.3)"/><path class="cls-5" d="M511.29,75.29H481.17V45.18h30.12Z" transform="translate(-0.3)"/><path class="cls-5" d="M466.08,30.12H436V0h30.12Z" transform="translate(-0.3)"/><path class="cls-5" d="M.3,45.18H30.42V75.29H.3Z" transform="translate(-0.3)"/><path class="cls-5" d="M45.48,0H75.6V30.12H45.48Z" transform="translate(-0.3)"/></svg>