<svg id="Capa_1" enable-background="new 0 0 510 510" height="512" viewBox="0 0 510 510" width="512" xmlns="http://www.w3.org/2000/svg"><g><g><path d="m358.9 360 68 7.3 68-7.3c0-10.5 0-19.5 0-30l-72.6-6-72.6 6-3.9 14.7z" fill="#bebbda"/><path d="m15 330v30l68 7.3 68-7.3 17.3-15.3-8.2-14.7-72.6-6z" fill="#e1def1"/><path d="m47.1 120 104 13 104-13 15-60-15.1-60c-88.2 0-165.9 47.5-207.9 120z" fill="#e1def1"/><path d="m255 0v120l104 11 104-11c-41.6-71.7-118.8-120-208-120z" fill="#bebbda"/><path d="m453.3 205.3-33.3 4.7-5.5 15 5.5 15 37.5 5.8 37.5-5.8c0-9.9-.6-19.9-1.9-30z" fill="#bebbda"/><path d="m390 150-7 15 7 15 42.7 8.3c3.2-.5-15.3 2.3 54.7-8.3-2.6-10.2-5.9-20.2-9.9-30l-43.8-5.8z" fill="#bebbda"/><path d="m120 240 9.5-15-9.5-15-42.7-7.8s-43.8 7.8-60.4 7.8c-1.2 9.8-1.9 19.8-1.9 30 18.6 0 60 5.8 60 5.8z" fill="#e1def1"/><path d="m435 420 30 7.3 30-7.3c0-10.5 0-19.5 0-30l-30-8.3-30 8.3-9.7 15z" fill="#bebbda"/><path d="m80.5 439.7-65.5 10.3v60h135l18.3-30-18.7-30z" fill="#e1def1"/><path d="m495 450-72.6-10.3-62.4 10.3-14 30 14 30h135c0-7.3 0-52.7 0-60z" fill="#bebbda"/><path d="m360 420c7.9 1.6 14.6 3 22.5 4.7 7.9-1.6 14.6-3 22.5-4.7l10-15-10-15c-7.9-1.6-14.6-3-22.5-4.7-7.9 1.6-14.6 3-22.5 4.7-2.8 5.2-5.2 9.8-8 15 2.8 5.2 5.2 9.8 8 15z" fill="#bebbda"/><g fill="#e1def1"><path d="m150 390-22.5-6.7-22.5 6.7-7.5 15 7.5 15 22.5 7.3 22.5-7.3 13.7-15z"/><path d="m75 390-30-6.7-30 6.7v30l30 7.3 30-7.3 7-15z"/><path d="m90 270-39.2-7.2-35.8 7.2v30l37.5 4.8 37.5-4.8 5.5-15z"/><path d="m90 180 7.5-15-7.5-15-28.8-5.8-28.8 5.8c-3.9 9.8-7.2 19.8-9.9 30 54.4 8.2 39.7 6 39.7 6z"/><path d="m120 270c-2.4 5.2-4.6 9.8-7 15 2.4 5.2 4.6 9.8 7 15l30.8 6.5 30.8-6.5c25.7-10.5 47.8-19.5 73.5-30-10.3-.9-75.1-6.4-85.5-7.3-15.8 2.4-33.9 5-49.6 7.3z"/></g><path d="m390 270c-18.4-2-56.8-6.1-67.5-7.3-18.4 2-56.8 6.1-67.5 7.3l37.5 15 36 15 31.5 6.5 30-6.5c2.7-5.1 5.3-9.9 8-15-1.7-3.2-6.3-11.8-8-15z" fill="#bebbda"/><path d="m300 180 30 8.3 30-8.3 6.5-15-6.5-15-30-5.7-30 5.7-8.5 15z" fill="#bebbda"/><path d="m330 240 30 5.8 30-5.8 5.5-15-5.5-15-30-6-30 6-4.2 15z" fill="#bebbda"/><path d="m420 270-4.3 10.8 4.3 19.2 37.5 6.5 37.5-6.5c0-10.5 0-30 0-30l-35-7.3z" fill="#bebbda"/><path d="m150 240 30 7.5 30-7.5 9.5-15-9.5-15-30-6-30 6-7.5 15z" fill="#e1def1"/><path d="m240 210v15s0 9.8 0 15h7.5 7.5l6.5-15-6.5-15s-5.1 0-7.5 0-4.9 0-7.5 0z" fill="#e1def1"/><path d="m300 210-22.5-4.8-22.5 4.8v30l22.5 3.8 22.5-3.8 6-15z" fill="#bebbda"/><path d="m180 150-30-5.7-30 5.7-7 15 7 15 30 6.3 30-6.3 5.5-15z" fill="#e1def1"/><path d="m210 150-7.5 15 7.5 15 22.5 6.3 22.5-6.3 4.5-15-4.5-15-22.5-5.7z" fill="#e1def1"/><path d="m270 150-7.5-5.8-7.5 5.8v30l7.5 5.3 7.5-5.3 6-15z" fill="#bebbda"/><path d="m120 300c0-10.5 0-19.5 0-30h135l15-15-15-15c-5.2 0-9.8 0-15 0 0-10.5 0-19.5 0-30h15l15-15-15-15c-15 0-30 0-45 0 0-10.5 0-19.5 0-30h45l15-15-15-15c-11.6 0-196.4 0-207.9 0-5.6 9.6-10.5 19.6-14.7 30h57.6v30c-5.3 0-58.3 0-67.5 0-2.5 9.8-4.4 19.8-5.7 30h8.8-8.8 103.1v30c-16.5 0-88.4 0-105 0v30h75v30c-20.2 0-63.2 0-75 0v30h145.1l25.2-15-3.8-15zm90-60c-7.3 0-52.7 0-60 0 0-10.5 0-19.5 0-30h60zm-90-90h60v30c-7.3 0-52.7 0-60 0 0-10.5 0-19.5 0-30z" fill="#f9f0f1"/><path d="m495 300c-20.2 0-63.2 0-75 0 0-10.5 0-19.5 0-30h75c0-10.5 0-19.5 0-30-22.7 0-51.8 0-75 0 0-10.5 0-19.5 0-30h73.1c-1.3-10.1-3.2-20.2-5.7-30-10.8 0-84.3 0-97.5 0 0-10.5 0-19.5 0-30h87.6c-4.2-10.3-9.1-20.4-14.7-30-11.6 0-196.4 0-207.9 0v30h15v30c-5.2 0-9.8 0-15 0v30h45v30c-15 0-30 0-45 0v30h135v30h-61.5l1.5 15 19.9 15h145.2c0-10.5 0-19.5 0-30zm-195-150h60v30c-7.3 0-52.7 0-60 0 0-10.5 0-19.5 0-30zm90 90c-7.3 0-52.7 0-60 0 0-10.5 0-19.5 0-30h60z" fill="#e1def1"/><path d="m105 420c0-10.5 0-19.5 0-30h45l13.7-15-12.6-15c-13.5 0-117.4 0-136.1 0v30h60v30c-7.3 0-52.7 0-60 0v30h134.7l9-15-8.7-15z" fill="#f9f0f1"/><path d="m495 420c-7.3 0-52.7 0-60 0 0-10.5 0-19.5 0-30h60c0-10.5 0-19.5 0-30h-136.1l-9 15 10.1 15h45v30h-45l-10.1 15 10.1 15h135c0-10.5 0-19.5 0-30z" fill="#e1def1"/><path d="m255 270c-58 0-105 47-105 105v135h45l60-195 13.4-23z" fill="#96cafc"/><path d="m360 375c0-57.9-46.9-105-105-105v45l60 195h45c0-16.3 0-118.6 0-135z" fill="#7f92f9"/><path d="m195 375v135h60l10.5-97.5-10.5-97.5c-33.1 0-60 26.9-60 60z" fill="#f9f0f1"/><path d="m315 375c0-33.1-26.9-60-60-60v195h60c0-16.3 0-118.6 0-135z" fill="#e1def1"/></g><g fill="#bebbda"><path d="m479.3 45h30v30h-30z" transform="matrix(-1 0 0 -1 988.591 120)"/><path d="m434.3 0h30v30h-30z" transform="matrix(-1 0 0 -1 898.557 30)"/><path d="m.3 45h30v30h-30z"/><path d="m45.3 0h30v30h-30z"/></g></g></svg>