<svg id="Capa_1" data-name="Capa 1" xmlns="http://www.w3.org/2000/svg" viewBox="0 0 384 384"><defs><style>.cls-1{fill:#b59deb;}</style></defs><title>lines-lilas</title><polygon class="cls-1" points="189.44 0 0 189.44 0 249.81 249.81 0 189.44 0"/><path class="cls-1" d="M42.67,0A42.79,42.79,0,0,0,0,42.67V85.44L85.44,0Z"/><path class="cls-1" d="M352.21,1.6Z"/><polygon class="cls-1" points="134.19 384 194.56 384 384 194.56 384 134.19 134.19 384"/><path class="cls-1" d="M352.21,1.6,1.6,352.21a42,42,0,0,0,10.88,19.2l.11.11a42,42,0,0,0,19.2,10.88L382.4,31.79A42.75,42.75,0,0,0,352.21,1.6Z"/><path class="cls-1" d="M341.33,384A42.8,42.8,0,0,0,384,341.33V298.56L298.56,384Z"/></svg>