<svg id="Capa_1" data-name="Capa 1" xmlns="http://www.w3.org/2000/svg" viewBox="0 0 415.74 423.28"><defs><style>.cls-1{fill:#b59deb;}</style></defs><title>mtr-lilas</title><polygon class="cls-1" points="208.38 257.53 126.61 339.3 126.61 365.36 234.44 257.53 208.38 257.53"/><path class="cls-1" d="M180.77,285.62A18.48,18.48,0,0,0,162.35,304V322.5l36.88-36.88Z" transform="translate(-35.75 -28.09)"/><polygon class="cls-1" points="184.53 423.28 210.59 423.28 292.36 341.51 292.36 315.45 184.53 423.28"/><path class="cls-1" d="M314.38,286.31,163,437.65a18.16,18.16,0,0,0,4.7,8.29l0,.05a18.13,18.13,0,0,0,8.29,4.69L327.42,299.34A18.48,18.48,0,0,0,314.38,286.31Z" transform="translate(-35.75 -28.09)"/><path class="cls-1" d="M309.69,451.37A18.48,18.48,0,0,0,328.11,433V414.49l-36.88,36.88Z" transform="translate(-35.75 -28.09)"/><path class="cls-1" d="M322.77,239.34" transform="translate(-35.75 -28.09)"/><path class="cls-1" d="M73,174a3.41,3.41,0,0,0,3.41-3.4V147.19a3.41,3.41,0,0,0-6.81,0v23.45A3.4,3.4,0,0,0,73,174Z" transform="translate(-35.75 -28.09)"/><path class="cls-1" d="M73,127.15a3.42,3.42,0,0,0,3.41-3.41v-9.42l8.06-4.87a3.4,3.4,0,1,0-3.52-5.82l-9.71,5.87a3.4,3.4,0,0,0-1.64,2.91v11.35a3.4,3.4,0,0,0,3.4,3.4Z" transform="translate(-35.75 -28.09)"/><path class="cls-1" d="M102.34,98.09a3.41,3.41,0,0,0,1.76-.49l19.63-11.86a3.4,3.4,0,0,0-3.52-5.82L100.57,91.77a3.41,3.41,0,0,0,1.76,6.33Z" transform="translate(-35.75 -28.09)"/><path class="cls-1" d="M178.72,85.76,198.2,97.61a3.4,3.4,0,0,0,3.53-5.82L182.26,80a3.4,3.4,0,1,0-3.58,5.78l0,0Z" transform="translate(-35.75 -28.09)"/><path class="cls-1" d="M217.67,109.46l8.06,4.9v9.42a3.4,3.4,0,1,0,6.8,0h0V112.44a3.43,3.43,0,0,0-1.63-2.91l-9.69-5.87a3.41,3.41,0,1,0-3.54,5.82Z" transform="translate(-35.75 -28.09)"/><path class="cls-1" d="M229.13,143.8a3.4,3.4,0,0,0-3.4,3.4v23.42a3.4,3.4,0,1,0,6.8,0h0V147.2A3.4,3.4,0,0,0,229.13,143.8Z" transform="translate(-35.75 -28.09)"/><path class="cls-1" d="M198.2,220.22l-19.48,11.85a3.4,3.4,0,0,0,1.78,6.32,3.33,3.33,0,0,0,1.76-.5l19.47-11.84a3.4,3.4,0,0,0-3.53-5.82Z" transform="translate(-35.75 -28.09)"/><path class="cls-1" d="M159.25,243.91l-7.93,4.82-7.95-4.79a3.4,3.4,0,0,0-3.51,5.83l9.71,5.87a3.38,3.38,0,0,0,3.52,0l9.69-5.9a3.4,3.4,0,0,0-3.53-5.81Z" transform="translate(-35.75 -28.09)"/><path class="cls-1" d="M123.73,232.09l-19.64-11.86a3.41,3.41,0,0,0-3.52,5.83l19.64,11.85a3.4,3.4,0,0,0,3.52-5.82Z" transform="translate(-35.75 -28.09)"/><path class="cls-1" d="M151.29,117.51a3.4,3.4,0,0,0,3.4-3.4v-2.62a3.4,3.4,0,0,0-6.8,0h0v2.61a3.4,3.4,0,0,0,3.39,3.41Z" transform="translate(-35.75 -28.09)"/><path class="cls-1" d="M151.29,137a3.4,3.4,0,0,0,3.4-3.4V131a3.4,3.4,0,0,0-6.8,0h0v2.62A3.4,3.4,0,0,0,151.29,137Z" transform="translate(-35.75 -28.09)"/><path class="cls-1" d="M252.7,206.41a14.15,14.15,0,0,0-9.48,3.61l-10.7-6.11v-9.85a3.41,3.41,0,0,0-6.81,0v6l-12.25-7V125a6.79,6.79,0,0,0-3.25-5.76L154.79,85.54l-.1-.05V71.15l4.56,2.77a3.41,3.41,0,1,0,3.54-5.83l-8.1-4.93v-7a14.24,14.24,0,1,0-6.8,0v7.06l-8,4.85a3.4,3.4,0,1,0,3.38,5.9l.13-.08,4.52-2.71V85.49l-.09.06L91.9,119.27A6.77,6.77,0,0,0,88.64,125v21a3.41,3.41,0,0,0,6.81,0V129.18l52.44,31.65v63.58L96.12,193.16,96,193a3.55,3.55,0,0,0-.59-.75V160.49a3.41,3.41,0,0,0-6.81,0h0v32.79l-12.24,7v-6.2a3.41,3.41,0,0,0-6.81,0v10.09l-10.24,5.87a14.18,14.18,0,1,0,3.84,5.61l10.39-5.91L81,214.2a3.4,3.4,0,1,0,3.52-5.82h0l-4.14-2.5,12.2-7,55.3,33.38a6.12,6.12,0,0,0,1.06.52,3.4,3.4,0,0,0,4.81.05l0-.05a6.22,6.22,0,0,0,1.07-.52L176.73,219a3.41,3.41,0,0,0-3.54-5.82l-18.46,11.23V160.83l52-31.62v63.55l-21,12.78a3.4,3.4,0,1,0,3.54,5.81h0l20.64-12.55L222,205.74l-4.33,2.63a3.41,3.41,0,1,0,3.54,5.82l7.54-4.59,10.63,6.06a14.25,14.25,0,1,0,13.34-9.25ZM49.85,228.09a7.44,7.44,0,1,1,7.47-7.44,7.42,7.42,0,0,1-7.47,7.44Zm94-185.74a7.44,7.44,0,1,1,7.47,7.42,7.43,7.43,0,0,1-7.47-7.42Zm4,51.08V97a3.41,3.41,0,0,0,6.81,0V93.46l48.84,29.7-48.84,29.71v-4a3.41,3.41,0,0,0-6.81,0h0v4L98.61,123.16ZM252.67,228.09a7.44,7.44,0,1,1,7.43-7.43h0a7.45,7.45,0,0,1-7.4,7.43Z" transform="translate(-35.75 -28.09)"/><g id="_6" data-name="6"><path class="cls-1" d="M333.28,105.54a19.71,19.71,0,1,0,19.7,19.7A19.71,19.71,0,0,0,333.28,105.54Zm0,29.56a9.86,9.86,0,1,1,9.85-9.86A9.85,9.85,0,0,1,333.28,135.1Zm98.5-49.26H313.58a19.7,19.7,0,0,0-19.7,19.7V223.75a19.7,19.7,0,0,0,19.7,19.7h118.2a19.7,19.7,0,0,0,19.7-19.7V105.54A19.7,19.7,0,0,0,431.78,85.84ZM313.58,233.6a9.85,9.85,0,0,1-9.85-9.85v-4.63l39.13-35,49.53,49.52Zm128.05-9.85a9.84,9.84,0,0,1-9.85,9.85H406.33L370,196.83l42-42,29.55,29.55Zm0-53.55L412.08,140l-49,49.8-20-20.25-39.4,36.13V105.54a9.86,9.86,0,0,1,9.85-9.85h118.2a9.85,9.85,0,0,1,9.85,9.85Z" transform="translate(-35.75 -28.09)"/></g></svg>