<svg id="Camada_1" data-name="Camada 1" xmlns="http://www.w3.org/2000/svg" viewBox="0 0 429.71 512.06"><defs><style>.cls-1{fill:#b59deb;}</style></defs><title>ninja-lilas</title><g id="Page-1"><circle id="Oval" class="cls-1" cx="310.86" cy="182.86" r="9.14"/><circle class="cls-1" cx="201.14" cy="182.86" r="9.14"/><path id="Shape" class="cls-1" d="M296.31,292.57H283.88a54.55,54.55,0,0,0,13.26,16.66,54,54,0,0,0,13.3-16.66Z" transform="translate(-41.14)"/><path class="cls-1" d="M234.51,228.57c22.27,0,28.82-4.66,35.17-9.14a41.18,41.18,0,0,1,27.43-9.14,41.16,41.16,0,0,1,27.42,9.14c6.35,4.52,12.91,9.14,35.17,9.14,25.21,0,38-18.46,38-54.86a136,136,0,0,0-3.53-31.65,313.17,313.17,0,0,0-97-14.06,313.11,313.11,0,0,0-97,14.06,135.46,135.46,0,0,0-3.54,31.65c0,36.4,12.8,54.86,37.94,54.86ZM352,155.43a27.43,27.43,0,1,1-27.43,27.43A27.43,27.43,0,0,1,352,155.43Zm-109.71,0a27.43,27.43,0,1,1-27.43,27.43A27.43,27.43,0,0,1,242.29,155.43Z" transform="translate(-41.14)"/><path class="cls-1" d="M434.15,160.14a145.89,145.89,0,0,0-19.93-10.44c7,48.45-5.48,97.16-54.45,97.16-47.54,0-40.33-18.29-62.63-18.29s-15.27,18.29-62.63,18.29c-49,0-61.44-48.7-54.44-97.16a145.31,145.31,0,0,0-19.93,10.44c1.69,92,49.48,114.15,137.77,114.15,87.21-.13,134.55-22.3,136.24-114.15Z" transform="translate(-41.14)"/><path class="cls-1" d="M141.71,113.64a129.27,129.27,0,0,1-36.57,5.22c-17.8,0-64,11.5-64,64v28.63l13.21-8.81a9.14,9.14,0,0,1,10.15,0l13.21,8.81V192c0-37.05,23.06-37.68,39.9-38.14l2.16-.08a36.23,36.23,0,0,1,21.94-7.49Z" transform="translate(-41.14)"/><path class="cls-1" d="M434,84C431.29,49.55,408.14,0,297.14,0S163,49.55,160.3,84c21.41-11.44,65.94-29.1,136.84-29.1S412.57,72.52,434,84Z" transform="translate(-41.14)"/><path class="cls-1" d="M434.29,139v-33.6c-11.89-7.71-56.16-32.23-137.15-32.23S172,97.64,160,105.37V139c21.28-11.43,65.83-29.26,137.14-29.26S413,127.55,434.29,139Z" transform="translate(-41.14)"/><path class="cls-1" d="M440.57,373.94,408.8,392.08A18.69,18.69,0,0,0,421,401.79a18.16,18.16,0,0,0,15.44-3.45,19.07,19.07,0,0,0,4.57-23.46Z" transform="translate(-41.14)"/><path class="cls-1" d="M348.76,511.82a27,27,0,0,0,28.95-18.11h-51.2A27.73,27.73,0,0,0,348.76,511.82Z" transform="translate(-41.14)"/><path class="cls-1" d="M361.79,402.29H232.49a35.72,35.72,0,0,1-2.47,8.48,178.32,178.32,0,0,0-14.87,64.66h54.92a98.27,98.27,0,0,1,13.36-45.95,16.33,16.33,0,0,1,13.6-8.91h.11A16.11,16.11,0,0,1,310.63,429a97.26,97.26,0,0,1,13.55,46.43h55a178.24,178.24,0,0,0-14.89-64.68A34.66,34.66,0,0,1,361.79,402.29Z" transform="translate(-41.14)"/><path class="cls-1" d="M141.71,164.57a18.29,18.29,0,0,0,0,36.57h4.5A199.78,199.78,0,0,1,142,164.57Z" transform="translate(-41.14)"/><path class="cls-1" d="M236.46,511.41A27.09,27.09,0,0,0,268,493.71H216.69A27,27,0,0,0,236.46,511.41Z" transform="translate(-41.14)"/><path class="cls-1" d="M452.57,164.57h-.26a199.8,199.8,0,0,1-4.25,36.57h4.51a18.29,18.29,0,1,0,0-36.57Z" transform="translate(-41.14)"/><path class="cls-1" d="M420.08,333a72.72,72.72,0,0,0-65.41-40.42H330.78a86.4,86.4,0,0,1-19.27,28.34A103.32,103.32,0,0,1,342.4,384h18.74V347.43a9.15,9.15,0,0,1,16.92-4.82l21.08,34,33.24-19Z" transform="translate(-41.14)"/><path class="cls-1" d="M226.51,338.63a9.15,9.15,0,0,1,6.63,8.8V384H324a91.49,91.49,0,0,0-32.23-56.58,74.22,74.22,0,0,1-28.23-34.85H239.62A72.74,72.74,0,0,0,174.21,333l-12.3,24.6,33.26,19,21-34A9.22,9.22,0,0,1,226.51,338.63Z" transform="translate(-41.14)"/><path class="cls-1" d="M153.25,374.86a19.08,19.08,0,0,0,4.57,23.47,18.29,18.29,0,0,0,27.69-6.18v-.06l-31.79-18.15Z" transform="translate(-41.14)"/></g></svg>