<svg height="512" viewBox="0 0 64 64" width="512" xmlns="http://www.w3.org/2000/svg"><g id="Flat"><g id="Colors_copy" data-name="Colors copy"><g><g><path d="m3 21h58v40h-58z" fill="#d0d8da"/><path d="m12 30v-9h-9v40h58v-7h-25a24 24 0 0 1 -24-24z" fill="#93999a"/><circle cx="11" cy="41" fill="#57b7eb" r="4"/><path d="m11 45a3.987 3.987 0 0 0 3.947-3.473 23.92 23.92 0 0 1 -1.673-3.813 4 4 0 1 0 -2.274 7.286z" fill="#4891d3"/><path d="m7 25h8v4h-8z" fill="#57b7eb"/><path d="m7 29h8v4h-8z" fill="#57b7eb"/><path d="m7 49h8v4h-8z" fill="#4891d3"/><path d="m7 53h8v4h-8z" fill="#4891d3"/><path d="m19 25h38v32h-38z" fill="#93999a"/><path d="m9 49h-2v4h8v-2h-4a2 2 0 0 1 -2-2z" fill="#2d72bc"/><path d="m9 53h-2v4h8v-2h-4a2 2 0 0 1 -2-2z" fill="#2d72bc"/><path d="m11 38a2.986 2.986 0 0 0 -2.554 1.446 2.965 2.965 0 0 1 1.554-.446 3 3 0 0 1 3 3 2.965 2.965 0 0 1 -.446 1.554 2.992 2.992 0 0 0 -1.554-5.554z" fill="#2d72bc"/><path d="m36 54a23.924 23.924 0 0 1 -17-7.06v10.06h38v-3z" fill="#656b76"/><g fill="#4891d3"><path d="m7 25h5v4h-5z"/><path d="m12 29h-5v4h5.193a24.342 24.342 0 0 1 -.193-3z"/><path d="m9 25h-2v4h8v-2h-4a2 2 0 0 1 -2-2z"/><path d="m9 29h-2v4h8v-2h-4a2 2 0 0 1 -2-2z"/></g><path d="m12 29v-2h-1a2 2 0 0 1 -2-2h-2v4z" fill="#2d72bc"/><path d="m9 29h-2v4h5.193c-.082-.658-.13-1.327-.16-2h-1.033a2 2 0 0 1 -2-2z" fill="#2d72bc"/><circle cx="11" cy="41" fill="#57b7eb" r="1"/><path d="m53 32a1 1 0 0 1 -1-1v-1h-1a1 1 0 0 1 0-2h2a1 1 0 0 1 1 1v2a1 1 0 0 1 -1 1z" fill="#d0d8da"/><path d="m23 32a1 1 0 0 1 -1-1v-2a1 1 0 0 1 1-1h2a1 1 0 0 1 0 2h-1v1a1 1 0 0 1 -1 1z" fill="#d0d8da"/><path d="m53 54h-2a1 1 0 0 1 0-2h1v-1a1 1 0 0 1 2 0v2a1 1 0 0 1 -1 1z" fill="#d0d8da"/><path d="m25 54h-2a1 1 0 0 1 -1-1v-2a1 1 0 0 1 2 0v1h1a1 1 0 0 1 0 2z" fill="#93999a"/></g><g><path d="m35.5 41.239a1 1 0 0 1 -.865-1.5l1.5-2.6a1 1 0 1 1 1.732 1l-1.5 2.6a1 1 0 0 1 -.867.5z" fill="#f9e109"/><path d="m42.464 36.445-6.928-4 17.732-26.713 3.464 2z" fill="#4891d3"/><path d="m56 3a2 2 0 0 1 2 2v2a0 0 0 0 1 0 0h-4a0 0 0 0 1 0 0v-2a2 2 0 0 1 2-2z" fill="#57b7eb" transform="matrix(.866 .5 -.5 .866 10.003 -27.33)"/><path d="m36.866 40.141-1.732-1 .402-6.696 6.928 4z" fill="#57b7eb"/><path d="m43.559 30.229a17.468 17.468 0 0 1 -3.534 4.808l2.439 1.408 14.268-28.713-1.55-.894z" fill="#2d72bc"/><path d="m57.109 3.347-1.377 2.385-.55 1.106 1.55.894 1-1.732a1.994 1.994 0 0 0 -.623-2.653z" fill="#4891d3"/><path d="m37.535 37.039a3.23 3.23 0 0 1 -2.3.486l-.1 1.616 1.732 1 5.6-3.7-2.439-1.408a17.438 17.438 0 0 1 -2.493 2.006z" fill="#4891d3"/><path d="m41 31.981a1 1 0 0 1 -.865-1.5l2-3.464a1 1 0 0 1 1.732 1l-2 3.464a1 1 0 0 1 -.867.5z" fill="#f9e109"/></g></g></g></g></svg>