<svg id="Capa_1" data-name="Capa 1" xmlns="http://www.w3.org/2000/svg" viewBox="0 0 388.78 340.12"><defs><style>.cls-1,.cls-2{fill:#b59deb;}.cls-1{fill-rule:evenodd;}</style></defs><title>zbrush-lilas</title><path class="cls-1" d="M224.63,21.48c18-1,30.89,18.38,36.31,31.41,3.08,7.4,5.67,19.48-1.78,23.15-5.81,2.86-12.77,3.31-21,4.39C218.5,83,206,78.29,198.89,66.4,196.85,63,194.72,57,196,51a40.14,40.14,0,0,1,18.85-26.44,25.12,25.12,0,0,1,9.8-3.1" transform="translate(3.26 -21.44)"/><path class="cls-2" d="M169.55,92.34a126.35,126.35,0,0,1,31.8,4.45A271.91,271.91,0,0,1,232,107.26C248.9,114,261.32,119,261.32,119s8.56-5.91,11.82-8.11c7.89-4.86,15.24-9.75,25-11.87a39.36,39.36,0,0,1,11.95-.19c11.52,2,18.52,7.06,19.49,16.84,1.33,13.14-15.45,27-19.4,30.75-3.53,3.31-20.45,19.29-41.25,21-10.13.82-19.7-2.51-26.59-5.41C240,161,234,158,234,158s-9.25,8.81-17.74,17.7-29.65,34.77-29.65,34.82c23.32-1.68,50.09,5.76,67.07,12.32,39.94,15.42,78.47,42.57,104.5,79.27,8.94,12.62,17.47,26.54,23.92,41.48,1.77,4.11,5.26,12.8,2.15,16.51s-10.64-.72-14.82-2.75c-7.61-3.69-23.81-16.07-35.52-25.46-5.35-4.31-13.62-11.73-15.06-18.3-.92-4.2,1.63-9.69,2.51-14,1.41-6.89-2.6-12.2-5.38-15.66-6.52-8.14-17.7-13.21-28.22-17.34-20.87-8.2-35.51-10.82-70.9-15.3s-59.08-1.66-61.7-1.56l-9,10.65c-7.53,7.8-35.54,35.46-43.64,41.6-14.49,11-30.68,21.63-47.82,29.9-33,15.9-54,13.39-56.44,10.75S-4.15,332.49.87,322.19,18,298.35,23.56,292.64a277.32,277.32,0,0,1,29.89-25.83c19.37-14.7,48.83-29.51,63.49-36.7,20.44-10.05,40.89-14.87,46-16.26,28.1-38.62,57.87-63.13,57.87-63.13s-11.94-7.64-17-11c-11-7.33-21.78-15.17-34.44-20.69-8-3.47-21.13-8.38-32.52-5.49-14,3.54-32.48,14.07-39.89,23.15-2.46,3-4.55,8.54-5.38,13.24-.66,3.71.36,9.12-.64,11.78-1.76,4.67-9.37,8.8-15.3,11.4-8.06,3.53-16.33,7.17-25.51,9.49-3.1.78-8.55,2.25-10.24,0-2.24-3,1.25-7.6,2.43-9.7,4.82-8.55,10.6-15.72,16.7-23,18.57-22.16,38.8-38.68,67.19-50,7.13-2.84,20.81-7.59,43.29-7.56M308.3,111.57a55.86,55.86,0,0,0-14.51,3.06,115.43,115.43,0,0,0-18.11,9.12c13.05,4,28.06,6.22,39.85-.92,2.87-1.74,5.46-4.09,5.58-6.88.15-3.15-8-4.83-12.81-4.38m-176.58,141s-6.53,1.2-10,1.91-11.61,3-17,4.45c-14.85,3.85-53.78,19-71.29,36.45A61.59,61.59,0,0,0,19.84,316c-.92,2.22-2.77,7.38-.91,10.48,1.59,2.64,6.29,3.22,10.33,2.33a83.47,83.47,0,0,0,22.4-8.89A273.38,273.38,0,0,0,115.54,270c4.83-5.21,11-11.64,12.76-13.59s3.42-3.87,3.42-3.87" transform="translate(3.26 -21.44)"/></svg>